<?xml version="1.0" encoding="UTF-8"?>
<svg xmlns="http://www.w3.org/2000/svg" xmlns:xlink="http://www.w3.org/1999/xlink" width="15px" height="15px" viewBox="0 0 15 15" version="1.1">
<g id="surface1">
<path style=" stroke:none;fill-rule:nonzero;fill:rgb(45.098039%,45.098039%,45.098039%);fill-opacity:1;" d="M 3.28125 2.578125 C 3.28125 2.191406 3.597656 1.875 3.984375 1.875 L 7.265625 1.875 C 7.652344 1.875 7.96875 2.191406 7.96875 2.578125 L 7.96875 5.625 L 3.984375 5.625 C 3.597656 5.625 3.28125 5.308594 3.28125 4.921875 Z M 3.28125 2.578125 "/>
<path style=" stroke:none;fill-rule:nonzero;fill:rgb(45.098039%,45.098039%,45.098039%);fill-opacity:1;" d="M 7.96875 5.625 L 11.953125 5.625 C 12.339844 5.625 12.65625 5.941406 12.65625 6.328125 L 12.65625 8.671875 C 12.65625 9.058594 12.339844 9.375 11.953125 9.375 L 7.96875 9.375 Z M 7.96875 5.625 "/>
<path style=" stroke:none;fill-rule:nonzero;fill:rgb(45.098039%,45.098039%,45.098039%);fill-opacity:1;" d="M 3.28125 10.078125 C 3.28125 9.691406 3.597656 9.375 3.984375 9.375 L 7.96875 9.375 L 7.96875 12.421875 C 7.96875 12.808594 7.652344 13.125 7.265625 13.125 L 3.984375 13.125 C 3.597656 13.125 3.28125 12.808594 3.28125 12.421875 Z M 3.28125 10.078125 "/>
</g>
</svg>
