<svg xmlns="http://www.w3.org/2000/svg" xmlns:xlink="http://www.w3.org/1999/xlink" width="15px" height="15px" viewBox="0 0 15 15" version="1.1">
<g id="surface1">
<path style=" stroke:none;fill-rule:nonzero;fill:#ffffff;fill-opacity:1;" d="M 12.828125 6.0625 C 9.949219 6.0625 7.796875 8.449219 7.796875 11.378906 L 7.796875 11.5 L 7.21875 11.5 L 7.21875 11.378906 C 7.21875 8.449219 5.078125 6.070312 2.175781 6.0625 C 2.175781 6.242188 2.175781 6.429688 2.175781 6.597656 C 2.164062 8.8125 3.53125 10.800781 5.601562 11.585938 C 6.21875 11.8125 6.867188 11.925781 7.523438 11.929688 C 8.183594 11.925781 8.839844 11.8125 9.460938 11.585938 C 11.53125 10.796875 12.894531 8.808594 12.882812 6.597656 C 12.855469 6.425781 12.84375 6.242188 12.828125 6.0625 Z M 12.828125 6.0625 "/>
<path style=" stroke:none;fill-rule:nonzero;fill:#ffffff;fill-opacity:1;" d="M 9.109375 4.679688 C 9.109375 5.566406 8.390625 6.285156 7.503906 6.285156 C 6.617188 6.285156 5.898438 5.566406 5.898438 4.679688 C 5.898438 3.792969 6.617188 3.074219 7.503906 3.074219 C 8.390625 3.074219 9.109375 3.792969 9.109375 4.679688 Z M 9.109375 4.679688 "/>
</g>
</svg>