<svg width="32" height="32" viewBox="0 0 32 32" fill="none" xmlns="http://www.w3.org/2000/svg">
<g id="solar:link-circle-bold">
<path id="Vector" fill-rule="evenodd" clip-rule="evenodd" d="M4.61875 27.38C6.57341 29.3334 9.71475 29.3334 16.0001 29.3334C22.2854 29.3334 25.4281 29.3334 27.3801 27.38C29.3334 25.4294 29.3334 22.2854 29.3334 16C29.3334 9.71469 29.3334 6.57202 27.3801 4.61869C25.4294 2.66669 22.2854 2.66669 16.0001 2.66669C9.71475 2.66669 6.57208 2.66669 4.61875 4.61869C2.66675 6.57335 2.66675 9.71469 2.66675 16C2.66675 22.2854 2.66675 25.428 4.61875 27.38ZM12.6667 11.6667C11.8097 11.6667 10.9719 11.9208 10.2593 12.397C9.54666 12.8731 8.99125 13.5499 8.66327 14.3417C8.33529 15.1335 8.24948 16.0048 8.41668 16.8454C8.58388 17.686 8.99659 18.4581 9.60262 19.0641C10.2086 19.6702 10.9808 20.0829 11.8214 20.2501C12.6619 20.4173 13.5332 20.3315 14.325 20.0035C15.1169 19.6755 15.7936 19.1201 16.2698 18.4075C16.7459 17.6949 17.0001 16.8571 17.0001 16C17.0001 15.7348 17.1054 15.4804 17.293 15.2929C17.4805 15.1054 17.7349 15 18.0001 15C18.2653 15 18.5197 15.1054 18.7072 15.2929C18.8947 15.4804 19.0001 15.7348 19.0001 16C19.0001 17.2526 18.6286 18.4771 17.9327 19.5186C17.2368 20.5601 16.2477 21.3719 15.0904 21.8513C13.9331 22.3306 12.6597 22.456 11.4312 22.2117C10.2026 21.9673 9.07414 21.3641 8.18841 20.4784C7.30267 19.5926 6.69948 18.4641 6.45511 17.2356C6.21073 16.007 6.33616 14.7336 6.81551 13.5764C7.29487 12.4191 8.10663 11.43 9.14814 10.734C10.1896 10.0381 11.4141 9.66669 12.6667 9.66669C12.932 9.66669 13.1863 9.77204 13.3739 9.95958C13.5614 10.1471 13.6667 10.4015 13.6667 10.6667C13.6667 10.9319 13.5614 11.1863 13.3739 11.3738C13.1863 11.5613 12.932 11.6667 12.6667 11.6667ZM23.6667 16C23.6667 17.1493 23.2102 18.2515 22.3975 19.0641C21.5849 19.8768 20.4827 20.3334 19.3334 20.3334C19.0682 20.3334 18.8138 20.4387 18.6263 20.6262C18.4388 20.8138 18.3334 21.0681 18.3334 21.3334C18.3334 21.5986 18.4388 21.8529 18.6263 22.0405C18.8138 22.228 19.0682 22.3334 19.3334 22.3334C20.586 22.3334 21.8105 21.9619 22.852 21.266C23.8935 20.5701 24.7053 19.5809 25.1847 18.4237C25.664 17.2664 25.7894 15.993 25.5451 14.7644C25.3007 13.5359 24.6975 12.4074 23.8118 11.5217C22.926 10.6359 21.7975 10.0328 20.569 9.78838C19.3404 9.54401 18.067 9.66943 16.9098 10.1488C15.7525 10.6281 14.7634 11.4399 14.0674 12.4814C13.3715 13.5229 13.0001 14.7474 13.0001 16C13.0001 16.2652 13.1054 16.5196 13.293 16.7071C13.4805 16.8947 13.7349 17 14.0001 17C14.2653 17 14.5197 16.8947 14.7072 16.7071C14.8947 16.5196 15.0001 16.2652 15.0001 16C15.0001 14.8507 15.4566 13.7485 16.2693 12.9359C17.0819 12.1232 18.1841 11.6667 19.3334 11.6667C20.4827 11.6667 21.5849 12.1232 22.3975 12.9359C23.2102 13.7485 23.6667 14.8507 23.6667 16Z" fill="#633CFF"/>
</g>
</svg>
