<svg xmlns="http://www.w3.org/2000/svg" xmlns:xlink="http://www.w3.org/1999/xlink" width="15px" height="15px" viewBox="0 0 15 15" version="1.1">
<g id="surface1">
<path style=" stroke:none;fill-rule:nonzero;fill:#ffffff;fill-opacity:1;" d="M 10.0625 11.207031 L 8.378906 12.835938 C 8.085938 13.128906 7.683594 13.25 7.238281 13.25 C 6.792969 13.25 6.390625 13.128906 6.097656 12.835938 L 3.390625 10.109375 C 3.097656 9.816406 2.953125 9.390625 2.953125 8.945312 C 2.953125 8.5 3.097656 8.097656 3.390625 7.804688 L 6.089844 5.066406 C 6.382812 4.773438 6.792969 4.664062 7.238281 4.664062 C 7.683594 4.664062 8.085938 4.785156 8.378906 5.078125 L 10.0625 6.707031 C 10.386719 7.027344 10.917969 7.015625 11.25 6.683594 C 11.585938 6.347656 11.597656 5.816406 11.277344 5.496094 L 9.644531 3.847656 C 9.222656 3.429688 8.695312 3.140625 8.117188 3.011719 L 9.660156 1.445312 C 9.980469 1.125 9.96875 0.59375 9.636719 0.257812 C 9.300781 -0.0742188 8.769531 -0.0859375 8.445312 0.234375 L 2.132812 6.546875 C 1.519531 7.160156 1.199219 8.007812 1.199219 8.945312 C 1.199219 9.882812 1.519531 10.753906 2.132812 11.367188 L 4.851562 14.09375 C 5.464844 14.703125 6.3125 15 7.246094 15 C 8.183594 15 9.03125 14.679688 9.644531 14.066406 L 11.273438 12.417969 C 11.597656 12.097656 11.585938 11.566406 11.25 11.230469 C 10.917969 10.894531 10.382812 10.886719 10.0625 11.207031 Z M 13.007812 8.132812 L 6.667969 8.132812 C 6.226562 8.132812 5.871094 8.507812 5.871094 8.972656 C 5.871094 9.4375 6.226562 9.8125 6.667969 9.8125 L 13.007812 9.8125 C 13.445312 9.8125 13.800781 9.4375 13.800781 8.972656 C 13.800781 8.507812 13.445312 8.132812 13.007812 8.132812 Z M 13.007812 8.132812 "/>
</g>
</svg>